<?xml version="1.0" encoding="UTF-8" standalone="no"?>
<!-- Created with Inkscape (http://www.inkscape.org/) -->

<svg
   xmlns:dc="http://purl.org/dc/elements/1.1/"
   xmlns:cc="http://creativecommons.org/ns#"
   xmlns:rdf="http://www.w3.org/1999/02/22-rdf-syntax-ns#"
   xmlns:svg="http://www.w3.org/2000/svg"
   xmlns="http://www.w3.org/2000/svg"
   xmlns:sodipodi="http://sodipodi.sourceforge.net/DTD/sodipodi-0.dtd"
   xmlns:inkscape="http://www.inkscape.org/namespaces/inkscape"
   width="64"
   height="64"
   viewBox="0 0 64.000001 64.000001"
   id="svg2"
   version="1.1"
   inkscape:version="0.91 r13725"
   sodipodi:docname="pieces.svg">
  <defs
     id="defs4" />
  <sodipodi:namedview
     id="base"
     pagecolor="#ffffff"
     bordercolor="#666666"
     borderopacity="1.0"
     inkscape:pageopacity="0.0"
     inkscape:pageshadow="2"
     inkscape:zoom="1.4"
     inkscape:cx="-270.99486"
     inkscape:cy="-192.5629"
     inkscape:document-units="px"
     inkscape:current-layer="layer1"
     showgrid="false"
     units="px"
     inkscape:window-width="1920"
     inkscape:window-height="1043"
     inkscape:window-x="0"
     inkscape:window-y="0"
     inkscape:window-maximized="1" />
  <metadata
     id="metadata7">
    <rdf:RDF>
      <cc:Work
         rdf:about="">
        <dc:format>image/svg+xml</dc:format>
        <dc:type
           rdf:resource="http://purl.org/dc/dcmitype/StillImage" />
        <dc:title></dc:title>
      </cc:Work>
    </rdf:RDF>
  </metadata>
  <g
     inkscape:label="Layer 1"
     inkscape:groupmode="layer"
     id="layer1"
     transform="translate(0,-988.36216)">
    <rect
       y="1404.7908"
       x="-494.28574"
       height="64"
       width="64"
       id="rect5463"
       style="fill:#cccccc;fill-opacity:1;stroke:none;stroke-width:22.89999962;stroke-miterlimit:4;stroke-dasharray:none;stroke-dashoffset:0" />
    <rect
       style="fill:#cccccc;fill-opacity:1;stroke:none;stroke-width:22.89999962;stroke-miterlimit:4;stroke-dasharray:none;stroke-dashoffset:0"
       id="rect5465"
       width="64"
       height="64"
       x="-412.00003"
       y="1404.7908" />
    <rect
       y="1404.7908"
       x="-329.71429"
       height="64"
       width="64"
       id="rect5467"
       style="fill:#cccccc;fill-opacity:1;stroke:none;stroke-width:22.89999962;stroke-miterlimit:4;stroke-dasharray:none;stroke-dashoffset:0" />
    <rect
       style="fill:#cccccc;fill-opacity:1;stroke:none;stroke-width:22.89999962;stroke-miterlimit:4;stroke-dasharray:none;stroke-dashoffset:0"
       id="rect5469"
       width="64"
       height="64"
       x="-247.42859"
       y="1404.7908" />
    <rect
       y="1404.7908"
       x="-165.14288"
       height="64"
       width="64"
       id="rect5471"
       style="fill:#cccccc;fill-opacity:1;stroke:none;stroke-width:22.89999962;stroke-miterlimit:4;stroke-dasharray:none;stroke-dashoffset:0" />
    <rect
       style="fill:#cccccc;fill-opacity:1;stroke:none;stroke-width:22.89999962;stroke-miterlimit:4;stroke-dasharray:none;stroke-dashoffset:0"
       id="rect5473"
       width="64"
       height="64"
       x="-82.857178"
       y="1404.7908" />
    <path
       style="fill:#ffffff;stroke:#000000;stroke-width:0.37083495"
       d="m -473.90505,1455.0813 c -0.27354,-0.8938 -0.17543,-1.478 0.27743,-1.6518 0.43164,-0.1656 0.50765,-0.5709 0.32966,-1.7579 -0.4223,-2.8161 1.29128,-5.3977 3.58299,-5.3977 0.94179,0 1.03056,-0.119 1.03665,-1.3905 0.004,-0.7649 0.17078,-4.7718 0.37134,-8.9043 0.22492,-4.6342 0.23275,-7.7607 0.0204,-8.1584 -0.18935,-0.3546 -0.43466,-0.9368 -0.54513,-1.2937 -0.11046,-0.3569 -0.54507,-0.6489 -0.96579,-0.6489 -1.12373,0 -1.39099,-1.1027 -0.45164,-1.8634 0.62267,-0.5042 0.8076,-1.1235 0.89623,-3.0016 l 0.11167,-2.3663 1.55596,-0.113 1.55596,-0.1131 0.11279,1.9638 c 0.0874,1.521 0.25909,1.9915 0.76176,2.0871 0.55552,0.1056 0.64896,-0.1758 0.64896,-1.9545 l 0,-2.0779 4.72815,0.1039 4.72814,0.1037 0.11166,2.3663 c 0.0866,1.8355 0.27891,2.5018 0.85708,2.9699 0.8845,0.7163 0.60633,1.8951 -0.44718,1.8951 -0.45246,0 -0.90579,0.4879 -1.29199,1.3906 -0.50298,1.1756 -0.55966,2.3939 -0.36665,7.8802 0.12557,3.5693 0.32707,7.5326 0.44777,8.8074 0.20381,2.1524 0.28422,2.3176 1.12773,2.3176 1.42311,0 2.27534,0.6379 3.08134,2.3061 0.86946,1.7996 0.90861,2.2567 0.2813,3.2841 -0.38976,0.6384 -0.36025,0.836 0.18542,1.2411 0.35693,0.265 0.64896,0.8389 0.64896,1.2754 l 0,0.7934 -11.6813,0 c -6.42472,0 -11.69407,-0.042 -11.70968,-0.093 z"
       id="path5435"
       inkscape:connector-curvature="0" />
    <path
       style="fill:#ffffff;stroke:#000000;stroke-width:0.37083495"
       d="m -390.82614,1458.6797 c -0.13863,-0.3613 0.0173,-0.7937 0.38247,-1.0607 0.6737,-0.4927 0.83117,-1.8614 0.2551,-2.2174 -0.53026,-0.3277 0.64881,-3.1842 1.72446,-4.1778 0.49683,-0.4588 1.28254,-0.8344 1.74604,-0.8344 0.70956,0 0.91193,-0.2998 1.28082,-1.8979 0.43578,-1.8879 0.43141,-1.9054 -0.82353,-3.2944 -2.82606,-3.1282 -2.13532,-6.7607 2.30048,-12.0982 0.99564,-1.198 1.99965,-2.5384 2.23113,-2.9786 0.40479,-0.7697 0.3395,-0.8058 -1.70625,-0.9428 -1.95721,-0.131 -2.29586,-0.03 -4.23909,1.2639 -1.16158,0.7735 -2.27519,1.4063 -2.47469,1.4063 -0.1995,0 -0.87616,-0.432 -1.50368,-0.96 -0.9842,-0.8282 -1.14096,-1.2062 -1.14096,-2.7521 0,-1.6871 0.14338,-1.951 2.45062,-4.5097 1.34784,-1.4947 2.88841,-3.0886 3.4235,-3.5419 0.9574,-0.811 0.96266,-0.8415 0.33064,-1.9114 -0.83467,-1.413 -0.83535,-1.4101 0.4969,-2.0991 0.86794,-0.4488 1.26101,-0.4879 1.65097,-0.1643 0.68935,0.5721 2.07713,0.095 1.94784,-0.6699 -0.0745,-0.4405 0.27785,-0.6704 1.28812,-0.8406 1.18857,-0.2002 1.39063,-0.135 1.39063,0.4491 0,0.4815 0.27362,0.6833 0.92709,0.6833 0.57686,0 0.92708,-0.2102 0.92708,-0.5563 0,-0.5876 0.73759,-0.6962 2.15328,-0.317 0.56399,0.151 0.78285,0.418 0.64252,0.7837 -0.28903,0.7532 0.93911,1.6416 1.55862,1.1276 0.32734,-0.2717 0.73453,-0.2061 1.39167,0.2246 0.92489,0.606 1.27612,1.704 0.54507,1.704 -0.25727,0 -0.24982,0.2505 0.0226,0.7595 0.26969,0.5039 0.63395,0.6873 1.0825,0.5449 0.49804,-0.158 0.73578,0.023 0.90293,0.6895 0.12478,0.4971 0.32888,1.1697 0.45355,1.4946 0.14941,0.3894 0.0235,0.5907 -0.36925,0.5907 -0.38843,0 -0.59593,0.3228 -0.59593,0.9271 0,0.5769 0.21014,0.927 0.55625,0.927 0.40174,0 0.55626,0.4121 0.55626,1.4834 0,1.0713 -0.15452,1.4833 -0.55626,1.4833 -0.30903,0 -0.55625,0.3297 -0.55625,0.7417 0,0.4121 0.24722,0.7416 0.55625,0.7416 0.40174,0 0.55626,0.4122 0.55626,1.4834 0,1.0713 -0.15452,1.4833 -0.55626,1.4833 -0.34611,0 -0.55625,0.3503 -0.55625,0.9271 0,0.5769 0.21014,0.9271 0.55625,0.9271 0.40174,0 0.55626,0.412 0.55626,1.4834 0,1.0713 -0.15452,1.4833 -0.55626,1.4833 -0.34611,0 -0.55625,0.3503 -0.55625,0.9271 0,0.5768 0.21014,0.9271 0.55625,0.9271 0.37014,0 0.55626,0.3701 0.55626,1.1062 0,0.955 -0.25351,1.2347 -1.85418,2.0459 l -1.85417,0.9395 0,2.2401 c 0,1.232 0.18668,2.9813 0.41485,3.8874 0.33282,1.3218 0.57548,1.6475 1.22705,1.6475 1.08537,0 1.8511,0.6419 2.77889,2.3291 0.82058,1.4922 1.0121,2.8627 0.40006,2.8627 -0.58953,0 -0.42954,1.4841 0.18542,1.72 0.30593,0.1175 0.55625,0.6129 0.55625,1.1009 l 0,0.8874 -11.69294,0 c -10.50858,0 -11.71665,-0.062 -11.92697,-0.6098 z"
       id="path5433"
       inkscape:connector-curvature="0" />
    <path
       style="fill:#ffffff;stroke:#000000;stroke-width:0.37083495"
       d="m -309.48203,1458.639 c -0.14117,-0.3679 0.0251,-0.7994 0.41928,-1.0877 0.51301,-0.3751 0.60177,-0.7827 0.41332,-1.8981 -0.44965,-2.6615 1.32594,-5.3045 3.56368,-5.3045 0.91971,0 1.02878,-0.1531 1.25467,-1.7614 0.13607,-0.9688 0.61462,-4.2108 1.06343,-7.2045 l 0.81603,-5.4429 -0.85529,-0.3897 c -0.88209,-0.4019 -1.13747,-1.2999 -0.48445,-1.7036 0.20396,-0.126 0.37083,-0.5687 0.37083,-0.9836 0,-0.4427 0.30657,-0.8347 0.74167,-0.9485 0.97263,-0.2544 0.95752,-1.4986 -0.031,-2.5508 -1.16125,-1.2361 -1.48606,-3.2419 -0.86412,-5.3362 0.84369,-2.841 1.37302,-3.0171 3.32155,-1.1048 1.29093,1.2671 1.74726,1.5215 2.09851,1.1702 0.35125,-0.3512 0.0533,-0.8505 -1.37039,-2.2958 l -1.81926,-1.8471 1.03151,-1.0766 c 0.65052,-0.679 0.88331,-1.1683 0.63026,-1.3247 -0.54004,-0.3338 -0.51054,-2.1715 0.0437,-2.7259 1.38563,-1.3856 4.18124,0.4358 3.27316,2.1326 -0.35454,0.6624 -0.20487,1.0242 1.04603,2.5279 2.34236,2.816 3.13221,4.7018 2.94,7.0196 -0.12464,1.503 -0.40377,2.2329 -1.15306,3.0149 -1.21236,1.2655 -1.27335,2.1972 -0.15423,2.3561 0.53622,0.076 0.87673,0.4168 0.95288,0.9529 0.0651,0.4589 0.27377,0.8344 0.46355,0.8344 0.18977,0 0.34504,0.3992 0.34504,0.8869 0,0.638 -0.26156,0.9525 -0.93207,1.1209 -0.72932,0.183 -0.89252,0.4136 -0.75029,1.0599 0.1,0.4543 0.522,3.2458 0.93785,6.2032 1.07012,7.6104 1.01535,7.4166 2.09628,7.4166 1.43695,0 2.28688,0.6334 3.09508,2.3061 0.86946,1.7996 0.90861,2.2567 0.2813,3.2841 -0.38977,0.6384 -0.36025,0.836 0.18541,1.2411 0.35693,0.265 0.64896,0.8389 0.64896,1.2754 l 0,0.7934 -11.69293,0 c -10.50858,0 -11.71665,-0.062 -11.92697,-0.6098 z"
       id="path5431"
       inkscape:connector-curvature="0" />
    <path
       style="fill:#ffffff;stroke:#000000;stroke-width:0.37083495"
       d="m -227.10989,1466.9897 c 0,-0.5098 0.14903,-0.9271 0.33116,-0.9271 0.52948,0 0.84257,-1.1996 0.42267,-1.6194 -0.21064,-0.2107 -0.38299,-1.4865 -0.38299,-2.8351 0,-3.8771 1.5754,-6.2997 4.09663,-6.2997 0.39832,0 0.72976,-0.2085 0.73654,-0.4635 0.007,-0.255 0.47564,-5.0271 1.04193,-10.6048 l 1.02961,-10.1413 -0.85651,-0.3256 c -0.47108,-0.1791 -0.85651,-0.5545 -0.85651,-0.8341 0,-0.9109 1.15338,-2.8474 1.69591,-2.8474 0.81491,0 0.64203,-1.8093 -0.74414,-7.7876 -0.68573,-2.9573 -1.17756,-5.4909 -1.09295,-5.63 0.0846,-0.1391 1.06879,-0.4577 2.1871,-0.7079 1.11829,-0.2504 2.03326,-0.653 2.03326,-0.8948 0,-0.2419 0.33034,-0.7388 0.73407,-1.1041 0.5606,-0.5074 0.71396,-1.0687 0.64896,-2.3752 -0.0789,-1.5862 -0.16589,-1.7244 -1.1934,-1.8963 -1.62093,-0.2712 -1.70761,-1.3984 -0.11926,-1.5509 1.08622,-0.1043 1.22911,-0.2457 1.24105,-1.2279 0.009,-0.7464 0.22167,-1.1501 0.64896,-1.2324 0.50434,-0.097 0.63547,0.1511 0.63547,1.2028 0,1.2723 0.0528,1.325 1.32511,1.325 1.06162,0 1.30067,0.1291 1.20217,0.649 -0.081,0.4274 -0.53336,0.6886 -1.32511,0.7651 -1.15443,0.1117 -1.20217,0.1806 -1.20217,1.7358 0,2.2072 1.25246,4.1168 2.91356,4.4422 0.68464,0.1342 1.62126,0.3871 2.08137,0.562 l 0.83657,0.318 -1.43241,6.2083 c -0.78783,3.4144 -1.43241,6.4195 -1.43241,6.6777 0,0.2583 0.37547,0.523 0.83438,0.5881 0.50914,0.072 0.83564,0.3775 0.83762,0.783 0.002,0.3655 0.22679,0.8027 0.50003,0.9715 0.75746,0.4681 0.34453,1.6853 -0.61826,1.8224 -0.77015,0.1097 -0.82973,0.2649 -0.64086,1.6688 0.11453,0.8513 0.53809,4.9688 0.94126,9.1499 1.07423,11.1406 1.00117,10.7542 2.03387,10.7542 1.11593,0 3.15782,1.6998 3.15782,2.6288 0,0.3898 0.16687,0.7087 0.37084,0.7087 0.53838,0 0.45975,5.0562 -0.0927,5.961 -0.38977,0.6384 -0.36025,0.836 0.18541,1.2411 0.35693,0.265 0.64896,0.8389 0.64896,1.2754 l 0,0.7934 -11.6813,0 -11.6813,0 0,-0.9271 z"
       id="path5429"
       inkscape:connector-curvature="0" />
    <path
       style="fill:#ffffff;stroke:#000000;stroke-width:0.37083495"
       d="m -144.82418,1462.3568 c 0,-0.5098 0.15604,-0.9271 0.34675,-0.9271 0.20501,0 0.25984,-1.3415 0.13412,-3.282 -0.17617,-2.7192 -0.0935,-3.552 0.48193,-4.8564 0.70378,-1.5951 2.05728,-2.6158 3.4688,-2.6158 0.41805,0 0.76009,-0.1013 0.76009,-0.2251 0,-0.6487 1.88118,-19.0485 2.04998,-20.0508 0.171,-1.0152 0.0816,-1.1944 -0.64768,-1.2978 -0.85659,-0.1216 -1.49638,-1.7888 -0.68642,-1.7888 0.21814,0 0.39663,-0.3494 0.39663,-0.7764 0,-0.4645 0.29792,-0.8543 0.74166,-0.9704 1.12846,-0.295 0.92684,-1.5102 -0.90557,-5.4584 -1.00299,-2.1609 -1.47437,-3.5651 -1.20522,-3.5901 1.27186,-0.1181 2.37976,0.1845 3.09235,0.8445 l 0.79614,0.7373 0.4504,-1.4193 c 0.24772,-0.7806 0.69937,-1.8153 1.00365,-2.2992 0.44646,-0.7099 0.46697,-1.041 0.10624,-1.7151 -0.92613,-1.7305 1.00217,-3.2099 2.38346,-1.8286 0.69398,0.694 0.69799,0.734 0.17201,1.7168 -0.32395,0.6053 -0.25175,1.129 0.34175,2.4787 0.41386,0.9413 0.84698,2.0118 0.96249,2.379 0.19933,0.6336 0.24949,0.6308 0.98555,-0.055 0.76137,-0.7093 2.41441,-1.1593 3.24354,-0.8829 0.26171,0.087 -0.15692,1.2846 -1.10893,3.1719 -0.84114,1.6674 -1.6558,3.584 -1.81035,4.259 -0.24987,1.0914 -0.17788,1.2666 0.6497,1.5813 0.596,0.2265 0.85602,0.5485 0.72302,0.8951 -0.11425,0.2977 0.0528,0.6871 0.37123,0.8653 0.8317,0.4655 0.46936,1.7125 -0.53932,1.856 -0.7703,0.1098 -0.82969,0.2647 -0.64009,1.6689 0.11495,0.8513 0.54023,4.9687 0.94506,9.1498 1.06245,10.973 1.02388,10.7543 1.8967,10.7543 1.53185,0 3.25545,1.4134 3.27863,2.6886 0.007,0.3568 0.17867,0.6489 0.38263,0.6489 0.53838,0 0.45974,5.0562 -0.0927,5.961 -0.38977,0.6384 -0.36026,0.8359 0.18541,1.241 0.35693,0.2651 0.64897,0.839 0.64897,1.2754 l 0,0.7935 -11.6813,0 -11.6813,0 0,-0.9271 z"
       id="path5427"
       inkscape:connector-curvature="0" />
    <path
       style="fill:#ffffff;stroke:#000000;stroke-width:0.37083495"
       d="m -60.897956,1453.2086 c -0.143854,-0.3749 0.01931,-0.8029 0.416948,-1.0937 0.513016,-0.3751 0.601774,-0.7827 0.413326,-1.8981 -0.155521,-0.9205 -0.04547,-1.886 0.312609,-2.743 0.6494,-1.5542 1.277948,-2.1401 2.704028,-2.5202 1.014939,-0.2705 1.055241,-0.379 1.47208,-3.9607 0.235723,-2.0255 0.533501,-4.4753 0.661737,-5.4441 0.22259,-1.6817 0.192375,-1.7615 -0.667028,-1.7615 -1.241378,0 -1.610686,-1.1173 -0.631391,-1.9103 0.420402,-0.3404 0.764356,-0.8664 0.764356,-1.1688 0,-0.3025 0.242333,-0.6428 0.538516,-0.7565 0.623804,-0.2394 0.51819,-1.0376 -0.367967,-2.7811 -1.404413,-2.7632 0.150434,-6.2442 3.196732,-7.1569 3.970088,-1.1894 7.653352,3.3564 5.731201,7.0734 -0.875983,1.694 -0.994766,2.6234 -0.366116,2.8646 0.296183,0.1137 0.538509,0.454 0.538509,0.7565 0,0.3024 0.343961,0.8284 0.764364,1.1688 0.991574,0.8029 0.609039,1.9103 -0.659887,1.9103 -0.842627,0 -0.909667,0.1118 -0.723435,1.2052 0.112895,0.6629 0.40496,3.0968 0.649042,5.4086 0.347437,3.2908 0.573489,4.2412 1.041233,4.3777 2.623695,0.7656 3.860095,2.6455 3.530287,5.3676 -0.159224,1.3141 -0.07863,1.7605 0.347357,1.924 0.305066,0.117 0.510363,0.5152 0.456215,0.8847 -0.09181,0.6266 -0.766529,0.6786 -9.992409,0.7707 -8.934682,0.089 -9.916855,0.039 -10.130307,-0.5172 z"
       id="path5421"
       inkscape:connector-curvature="0" />
    <rect
       style="fill:#cccccc;fill-opacity:1;stroke:none;stroke-width:22.89999962;stroke-miterlimit:4;stroke-dasharray:none;stroke-dashoffset:0"
       id="rect5475"
       width="64"
       height="64"
       x="-494.28574"
       y="1326.2194" />
    <rect
       y="1326.2194"
       x="-412.00003"
       height="64"
       width="64"
       id="rect5477"
       style="fill:#cccccc;fill-opacity:1;stroke:none;stroke-width:22.89999962;stroke-miterlimit:4;stroke-dasharray:none;stroke-dashoffset:0" />
    <rect
       style="fill:#cccccc;fill-opacity:1;stroke:none;stroke-width:22.89999962;stroke-miterlimit:4;stroke-dasharray:none;stroke-dashoffset:0"
       id="rect5479"
       width="64"
       height="64"
       x="-329.71429"
       y="1326.2194" />
    <rect
       y="1326.2194"
       x="-247.42859"
       height="64"
       width="64"
       id="rect5481"
       style="fill:#cccccc;fill-opacity:1;stroke:none;stroke-width:22.89999962;stroke-miterlimit:4;stroke-dasharray:none;stroke-dashoffset:0" />
    <rect
       style="fill:#cccccc;fill-opacity:1;stroke:none;stroke-width:22.89999962;stroke-miterlimit:4;stroke-dasharray:none;stroke-dashoffset:0"
       id="rect5483"
       width="64"
       height="64"
       x="-165.14288"
       y="1326.2194" />
    <rect
       y="1326.2194"
       x="-82.857178"
       height="64"
       width="64"
       id="rect5485"
       style="fill:#cccccc;fill-opacity:1;stroke:none;stroke-width:22.89999962;stroke-miterlimit:4;stroke-dasharray:none;stroke-dashoffset:0" />
    <path
       inkscape:connector-curvature="0"
       id="path5487"
       d="m -473.90505,1376.5099 c -0.27354,-0.8938 -0.17543,-1.478 0.27743,-1.6518 0.43164,-0.1656 0.50765,-0.5709 0.32966,-1.7579 -0.4223,-2.8161 1.29128,-5.3977 3.58299,-5.3977 0.94179,0 1.03056,-0.119 1.03665,-1.3905 0.004,-0.7649 0.17078,-4.7718 0.37134,-8.9043 0.22492,-4.6342 0.23275,-7.7607 0.0204,-8.1584 -0.18935,-0.3546 -0.43466,-0.9368 -0.54513,-1.2937 -0.11046,-0.3569 -0.54507,-0.6489 -0.96579,-0.6489 -1.12373,0 -1.39099,-1.1027 -0.45164,-1.8634 0.62267,-0.5042 0.8076,-1.1235 0.89623,-3.0016 l 0.11167,-2.3663 1.55596,-0.113 1.55596,-0.1131 0.11279,1.9638 c 0.0874,1.521 0.25909,1.9915 0.76176,2.0871 0.55552,0.1056 0.64896,-0.1758 0.64896,-1.9545 l 0,-2.0779 4.72815,0.1039 4.72814,0.1037 0.11166,2.3663 c 0.0866,1.8355 0.27891,2.5018 0.85708,2.9699 0.8845,0.7163 0.60633,1.8951 -0.44718,1.8951 -0.45246,0 -0.90579,0.4879 -1.29199,1.3906 -0.50298,1.1756 -0.55966,2.3939 -0.36665,7.8802 0.12557,3.5693 0.32707,7.5326 0.44777,8.8074 0.20381,2.1524 0.28422,2.3176 1.12773,2.3176 1.42311,0 2.27534,0.6379 3.08134,2.3061 0.86946,1.7996 0.90861,2.2567 0.2813,3.2841 -0.38976,0.6384 -0.36025,0.836 0.18542,1.2411 0.35693,0.265 0.64896,0.8389 0.64896,1.2754 l 0,0.7934 -11.6813,0 c -6.42472,0 -11.69407,-0.042 -11.70968,-0.093 z"
       style="fill:#000000;stroke:none;stroke-width:0.37083495" />
    <path
       inkscape:connector-curvature="0"
       id="path5489"
       d="m -390.82614,1380.1083 c -0.13863,-0.3613 0.0173,-0.7937 0.38247,-1.0607 0.6737,-0.4927 0.83117,-1.8614 0.2551,-2.2174 -0.53026,-0.3277 0.64881,-3.1842 1.72446,-4.1778 0.49683,-0.4588 1.28254,-0.8344 1.74604,-0.8344 0.70956,0 0.91193,-0.2998 1.28082,-1.8979 0.43578,-1.8879 0.43141,-1.9054 -0.82353,-3.2944 -2.82606,-3.1282 -2.13532,-6.7607 2.30048,-12.0982 0.99564,-1.198 1.99965,-2.5384 2.23113,-2.9786 0.40479,-0.7697 0.3395,-0.8058 -1.70625,-0.9428 -1.95721,-0.131 -2.29586,-0.03 -4.23909,1.2639 -1.16158,0.7735 -2.27519,1.4063 -2.47469,1.4063 -0.1995,0 -0.87616,-0.432 -1.50368,-0.96 -0.9842,-0.8282 -1.14096,-1.2062 -1.14096,-2.7521 0,-1.6871 0.14338,-1.951 2.45062,-4.5097 1.34784,-1.4947 2.88841,-3.0886 3.4235,-3.5419 0.9574,-0.811 0.96266,-0.8415 0.33064,-1.9114 -0.83467,-1.413 -0.83535,-1.4101 0.4969,-2.0991 0.86794,-0.4488 1.26101,-0.4879 1.65097,-0.1643 0.68935,0.5721 2.07713,0.095 1.94784,-0.6699 -0.0745,-0.4405 0.27785,-0.6704 1.28812,-0.8406 1.18857,-0.2002 1.39063,-0.135 1.39063,0.4491 0,0.4815 0.27362,0.6833 0.92709,0.6833 0.57686,0 0.92708,-0.2102 0.92708,-0.5563 0,-0.5876 0.73759,-0.6962 2.15328,-0.317 0.56399,0.151 0.78285,0.418 0.64252,0.7837 -0.28903,0.7532 0.93911,1.6416 1.55862,1.1276 0.32734,-0.2717 0.73453,-0.2061 1.39167,0.2246 0.92489,0.606 1.27612,1.704 0.54507,1.704 -0.25727,0 -0.24982,0.2505 0.0226,0.7595 0.26969,0.5039 0.63395,0.6873 1.0825,0.5449 0.49804,-0.158 0.73578,0.023 0.90293,0.6895 0.12478,0.4971 0.32888,1.1697 0.45355,1.4946 0.14941,0.3894 0.0235,0.5907 -0.36925,0.5907 -0.38843,0 -0.59593,0.3228 -0.59593,0.9271 0,0.5769 0.21014,0.927 0.55625,0.927 0.40174,0 0.55626,0.4121 0.55626,1.4834 0,1.0713 -0.15452,1.4833 -0.55626,1.4833 -0.30903,0 -0.55625,0.3297 -0.55625,0.7417 0,0.4121 0.24722,0.7416 0.55625,0.7416 0.40174,0 0.55626,0.4122 0.55626,1.4834 0,1.0713 -0.15452,1.4833 -0.55626,1.4833 -0.34611,0 -0.55625,0.3503 -0.55625,0.9271 0,0.5769 0.21014,0.9271 0.55625,0.9271 0.40174,0 0.55626,0.412 0.55626,1.4834 0,1.0713 -0.15452,1.4833 -0.55626,1.4833 -0.34611,0 -0.55625,0.3503 -0.55625,0.9271 0,0.5768 0.21014,0.9271 0.55625,0.9271 0.37014,0 0.55626,0.3701 0.55626,1.1062 0,0.955 -0.25351,1.2347 -1.85418,2.0459 l -1.85417,0.9395 0,2.2401 c 0,1.232 0.18668,2.9813 0.41485,3.8874 0.33282,1.3218 0.57548,1.6475 1.22705,1.6475 1.08537,0 1.8511,0.6419 2.77889,2.3291 0.82058,1.4922 1.0121,2.8627 0.40006,2.8627 -0.58953,0 -0.42954,1.4841 0.18542,1.72 0.30593,0.1175 0.55625,0.6129 0.55625,1.1009 l 0,0.8874 -11.69294,0 c -10.50858,0 -11.71665,-0.062 -11.92697,-0.6098 z"
       style="fill:#000000;stroke:none;stroke-width:0.37083495" />
    <path
       inkscape:connector-curvature="0"
       id="path5491"
       d="m -309.48203,1380.0676 c -0.14117,-0.3679 0.0251,-0.7994 0.41928,-1.0877 0.51301,-0.3751 0.60177,-0.7827 0.41332,-1.8981 -0.44965,-2.6615 1.32594,-5.3045 3.56368,-5.3045 0.91971,0 1.02878,-0.1531 1.25467,-1.7614 0.13607,-0.9688 0.61462,-4.2108 1.06343,-7.2045 l 0.81603,-5.4429 -0.85529,-0.3897 c -0.88209,-0.4019 -1.13747,-1.2999 -0.48445,-1.7036 0.20396,-0.126 0.37083,-0.5687 0.37083,-0.9836 0,-0.4427 0.30657,-0.8347 0.74167,-0.9485 0.97263,-0.2544 0.95752,-1.4986 -0.031,-2.5508 -1.16125,-1.2361 -1.48606,-3.2419 -0.86412,-5.3362 0.84369,-2.841 1.37302,-3.0171 3.32155,-1.1048 1.29093,1.2671 1.74726,1.5215 2.09851,1.1702 0.35125,-0.3512 0.0533,-0.8505 -1.37039,-2.2958 l -1.81926,-1.8471 1.03151,-1.0766 c 0.65052,-0.679 0.88331,-1.1683 0.63026,-1.3247 -0.54004,-0.3338 -0.51054,-2.1715 0.0437,-2.7259 1.38563,-1.3856 4.18124,0.4358 3.27316,2.1326 -0.35454,0.6624 -0.20487,1.0242 1.04603,2.5279 2.34236,2.816 3.13221,4.7018 2.94,7.0196 -0.12464,1.503 -0.40377,2.2329 -1.15306,3.0149 -1.21236,1.2655 -1.27335,2.1972 -0.15423,2.3561 0.53622,0.076 0.87673,0.4168 0.95288,0.9529 0.0651,0.4589 0.27377,0.8344 0.46355,0.8344 0.18977,0 0.34504,0.3992 0.34504,0.8869 0,0.638 -0.26156,0.9525 -0.93207,1.1209 -0.72932,0.183 -0.89252,0.4136 -0.75029,1.0599 0.1,0.4543 0.522,3.2458 0.93785,6.2032 1.07012,7.6104 1.01535,7.4166 2.09628,7.4166 1.43695,0 2.28688,0.6334 3.09508,2.3061 0.86946,1.7996 0.90861,2.2567 0.2813,3.2841 -0.38977,0.6384 -0.36025,0.836 0.18541,1.2411 0.35693,0.265 0.64896,0.8389 0.64896,1.2754 l 0,0.7934 -11.69293,0 c -10.50858,0 -11.71665,-0.062 -11.92697,-0.6098 z"
       style="fill:#000000;stroke:none;stroke-width:0.37083495" />
    <path
       inkscape:connector-curvature="0"
       id="path5493"
       d="m -227.10989,1388.4183 c 0,-0.5098 0.14903,-0.9271 0.33116,-0.9271 0.52948,0 0.84257,-1.1996 0.42267,-1.6194 -0.21064,-0.2107 -0.38299,-1.4865 -0.38299,-2.8351 0,-3.8771 1.5754,-6.2997 4.09663,-6.2997 0.39832,0 0.72976,-0.2085 0.73654,-0.4635 0.007,-0.255 0.47564,-5.0271 1.04193,-10.6048 l 1.02961,-10.1413 -0.85651,-0.3256 c -0.47108,-0.1791 -0.85651,-0.5545 -0.85651,-0.8341 0,-0.9109 1.15338,-2.8474 1.69591,-2.8474 0.81491,0 0.64203,-1.8093 -0.74414,-7.7876 -0.68573,-2.9573 -1.17756,-5.4909 -1.09295,-5.63 0.0846,-0.1391 1.06879,-0.4577 2.1871,-0.7079 1.11829,-0.2504 2.03326,-0.653 2.03326,-0.8948 0,-0.2419 0.33034,-0.7388 0.73407,-1.1041 0.5606,-0.5074 0.71396,-1.0687 0.64896,-2.3752 -0.0789,-1.5862 -0.16589,-1.7244 -1.1934,-1.8963 -1.62093,-0.2712 -1.70761,-1.3984 -0.11926,-1.5509 1.08622,-0.1043 1.22911,-0.2457 1.24105,-1.2279 0.009,-0.7464 0.22167,-1.1501 0.64896,-1.2324 0.50434,-0.097 0.63547,0.1511 0.63547,1.2028 0,1.2723 0.0528,1.325 1.32511,1.325 1.06162,0 1.30067,0.1291 1.20217,0.649 -0.081,0.4274 -0.53336,0.6886 -1.32511,0.7651 -1.15443,0.1117 -1.20217,0.1806 -1.20217,1.7358 0,2.2072 1.25246,4.1168 2.91356,4.4422 0.68464,0.1342 1.62126,0.3871 2.08137,0.562 l 0.83657,0.318 -1.43241,6.2083 c -0.78783,3.4144 -1.43241,6.4195 -1.43241,6.6777 0,0.2583 0.37547,0.523 0.83438,0.5881 0.50914,0.072 0.83564,0.3775 0.83762,0.783 0.002,0.3655 0.22679,0.8027 0.50003,0.9715 0.75746,0.4681 0.34453,1.6853 -0.61826,1.8224 -0.77015,0.1097 -0.82973,0.2649 -0.64086,1.6688 0.11453,0.8513 0.53809,4.9688 0.94126,9.1499 1.07423,11.1406 1.00117,10.7542 2.03387,10.7542 1.11593,0 3.15782,1.6998 3.15782,2.6288 0,0.3898 0.16687,0.7087 0.37084,0.7087 0.53838,0 0.45975,5.0562 -0.0927,5.961 -0.38977,0.6384 -0.36025,0.836 0.18541,1.2411 0.35693,0.265 0.64896,0.8389 0.64896,1.2754 l 0,0.7934 -11.6813,0 -11.6813,0 0,-0.9271 z"
       style="fill:#000000;stroke:none;stroke-width:0.37083495" />
    <path
       inkscape:connector-curvature="0"
       id="path5495"
       d="m -144.82418,1383.7854 c 0,-0.5098 0.15604,-0.9271 0.34675,-0.9271 0.20501,0 0.25984,-1.3415 0.13412,-3.282 -0.17617,-2.7192 -0.0935,-3.552 0.48193,-4.8564 0.70378,-1.5951 2.05728,-2.6158 3.4688,-2.6158 0.41805,0 0.76009,-0.1013 0.76009,-0.2251 0,-0.6487 1.88118,-19.0485 2.04998,-20.0508 0.171,-1.0152 0.0816,-1.1944 -0.64768,-1.2978 -0.85659,-0.1216 -1.49638,-1.7888 -0.68642,-1.7888 0.21814,0 0.39663,-0.3494 0.39663,-0.7764 0,-0.4645 0.29792,-0.8543 0.74166,-0.9704 1.12846,-0.295 0.92684,-1.5102 -0.90557,-5.4584 -1.00299,-2.1609 -1.47437,-3.5651 -1.20522,-3.5901 1.27186,-0.1181 2.37976,0.1845 3.09235,0.8445 l 0.79614,0.7373 0.4504,-1.4193 c 0.24772,-0.7806 0.69937,-1.8153 1.00365,-2.2992 0.44646,-0.7099 0.46697,-1.041 0.10624,-1.7151 -0.92613,-1.7305 1.00217,-3.2099 2.38346,-1.8286 0.69398,0.694 0.69799,0.734 0.17201,1.7168 -0.32395,0.6053 -0.25175,1.129 0.34175,2.4787 0.41386,0.9413 0.84698,2.0118 0.96249,2.379 0.19933,0.6336 0.24949,0.6308 0.98555,-0.055 0.76137,-0.7093 2.41441,-1.1593 3.24354,-0.8829 0.26171,0.087 -0.15692,1.2846 -1.10893,3.1719 -0.84114,1.6674 -1.6558,3.584 -1.81035,4.259 -0.24987,1.0914 -0.17788,1.2666 0.6497,1.5813 0.596,0.2265 0.85602,0.5485 0.72302,0.8951 -0.11425,0.2977 0.0528,0.6871 0.37123,0.8653 0.8317,0.4655 0.46936,1.7125 -0.53932,1.856 -0.7703,0.1098 -0.82969,0.2647 -0.64009,1.6689 0.11495,0.8513 0.54023,4.9687 0.94506,9.1498 1.06245,10.973 1.02388,10.7543 1.8967,10.7543 1.53185,0 3.25545,1.4134 3.27863,2.6886 0.007,0.3568 0.17867,0.6489 0.38263,0.6489 0.53838,0 0.45974,5.0562 -0.0927,5.961 -0.38977,0.6384 -0.36026,0.8359 0.18541,1.241 0.35693,0.2651 0.64897,0.839 0.64897,1.2754 l 0,0.7935 -11.6813,0 -11.6813,0 0,-0.9271 z"
       style="fill:#000000;stroke:none;stroke-width:0.37083495" />
    <path
       inkscape:connector-curvature="0"
       id="path5497"
       d="m -60.897956,1374.6372 c -0.143854,-0.3749 0.01931,-0.8029 0.416948,-1.0937 0.513016,-0.3751 0.601774,-0.7827 0.413326,-1.8981 -0.155521,-0.9205 -0.04547,-1.886 0.312609,-2.743 0.6494,-1.5542 1.277948,-2.1401 2.704028,-2.5202 1.014939,-0.2705 1.055241,-0.379 1.47208,-3.9607 0.235723,-2.0255 0.533501,-4.4753 0.661737,-5.4441 0.22259,-1.6817 0.192375,-1.7615 -0.667028,-1.7615 -1.241378,0 -1.610686,-1.1173 -0.631391,-1.9103 0.420402,-0.3404 0.764356,-0.8664 0.764356,-1.1688 0,-0.3025 0.242333,-0.6428 0.538516,-0.7565 0.623804,-0.2394 0.51819,-1.0376 -0.367967,-2.7811 -1.404413,-2.7632 0.150434,-6.2442 3.196732,-7.1569 3.970088,-1.1894 7.653352,3.3564 5.731201,7.0734 -0.875983,1.694 -0.994766,2.6234 -0.366116,2.8646 0.296183,0.1137 0.538509,0.454 0.538509,0.7565 0,0.3024 0.343961,0.8284 0.764364,1.1688 0.991574,0.8029 0.609039,1.9103 -0.659887,1.9103 -0.842627,0 -0.909667,0.1118 -0.723435,1.2052 0.112895,0.6629 0.40496,3.0968 0.649042,5.4086 0.347437,3.2908 0.573489,4.2412 1.041233,4.3777 2.623695,0.7656 3.860095,2.6455 3.530287,5.3676 -0.159224,1.3141 -0.07863,1.7605 0.347357,1.924 0.305066,0.117 0.510363,0.5152 0.456215,0.8847 -0.09181,0.6266 -0.766529,0.6786 -9.992409,0.7707 -8.934682,0.089 -9.916855,0.039 -10.130307,-0.5172 z"
       style="fill:#000000;stroke:none;stroke-width:0.37083495" />
  </g>
</svg>
